M48
INCH,TZ
T1C0.025
T2C0.025
T3C0.039
T4C0.059
%
G90
G05
T1
X4.1339Y-3.9764
X4.1339Y-4.0748
X4.5276Y-3.9764
X4.5276Y-4.0748
X4.685Y-3.9764
X4.685Y-4.0748
X5.0787Y-3.9764
X5.0787Y-4.0748
X5.3937Y-3.9764
X5.3937Y-4.0748
X5.7874Y-3.9764
X5.7874Y-4.0748
T2
X4.4331Y-4.5906
X4.4803Y-4.4409
X4.563Y-4.5276
X4.8071Y-4.5315
X5.0276Y-4.437
X5.0787Y-4.4803
X5.6299Y-4.3543
T3
X5.9291Y-4.0315
X5.9291Y-4.1315
X5.9291Y-4.2315
X5.9291Y-4.3315
X5.9291Y-4.4315
X5.9291Y-4.5315
X5.9291Y-4.6315
X5.9291Y-4.7315
X5.9291Y-4.8315
X5.9291Y-4.9315
X5.9291Y-5.0315
X5.9291Y-5.1315
X5.9291Y-5.2315
X6.0291Y-4.0315
X6.0291Y-4.1315
X6.0291Y-4.2315
X6.0291Y-4.3315
X6.0291Y-4.4315
X6.0291Y-4.5315
X6.0291Y-4.6315
X6.0291Y-4.7315
X6.0291Y-4.8315
X6.0291Y-4.9315
X6.0291Y-5.0315
X6.0291Y-5.1315
X6.0291Y-5.2315
T4
X4.1339Y-4.2717
X4.2323Y-4.2717
X4.3307Y-4.0748
X4.4291Y-4.2717
X4.5276Y-4.2717
X4.685Y-4.2717
X4.7835Y-4.2717
X4.8819Y-4.0748
X4.9803Y-4.2717
X5.0787Y-4.2717
X5.3937Y-4.2717
X5.4921Y-4.2717
X5.5906Y-4.0748
X5.689Y-4.2717
X5.7874Y-4.2717
T0
M30
