%FSLAX34Y34*%
G04 Gerber Fmt 3.4, Leading zero omitted, Abs format*
G04 (created by PCBNEW (2014-05-22 BZR 4881)-product) date Fri 30 May 2014 10:08:30 PM EDT*
%MOIN*%
G01*
G70*
G90*
G04 APERTURE LIST*
%ADD10C,0.003937*%
%ADD11R,0.064961X0.064961*%
%ADD12C,0.064961*%
%ADD13C,0.024606*%
%ADD14C,0.086614*%
%ADD15C,0.035000*%
%ADD16C,0.015748*%
%ADD17C,0.010000*%
G04 APERTURE END LIST*
G54D10*
X58267Y-48818D02*
X39370Y-48818D01*
X58267Y-53149D02*
X58267Y-48818D01*
X61417Y-53149D02*
X58267Y-53149D01*
X61417Y-39370D02*
X61417Y-53149D01*
X39370Y-39370D02*
X39370Y-48818D01*
X39370Y-39370D02*
X61417Y-39370D01*
G54D11*
X59291Y-40314D03*
G54D12*
X60291Y-40314D03*
X59291Y-41314D03*
X60291Y-41314D03*
X59291Y-42314D03*
X60291Y-42314D03*
X59291Y-43314D03*
X60291Y-43314D03*
X59291Y-44314D03*
X60291Y-44314D03*
X59291Y-45314D03*
X60291Y-45314D03*
X59291Y-46314D03*
X60291Y-46314D03*
X59291Y-47314D03*
X60291Y-47314D03*
X59291Y-48314D03*
X60291Y-48314D03*
X59291Y-49314D03*
X60291Y-49314D03*
X59291Y-50314D03*
X60291Y-50314D03*
X59291Y-51314D03*
X60291Y-51314D03*
X59291Y-52314D03*
X60291Y-52314D03*
G54D13*
X50787Y-39763D03*
X50787Y-40748D03*
X46850Y-39763D03*
X46850Y-40748D03*
G54D14*
X48818Y-40748D03*
X46850Y-42716D03*
X50787Y-42716D03*
X47834Y-42716D03*
X49803Y-42716D03*
G54D13*
X57874Y-39763D03*
X57874Y-40748D03*
X53937Y-39763D03*
X53937Y-40748D03*
G54D14*
X55905Y-40748D03*
X53937Y-42716D03*
X57874Y-42716D03*
X54921Y-42716D03*
X56889Y-42716D03*
G54D13*
X45275Y-39763D03*
X45275Y-40748D03*
X41338Y-39763D03*
X41338Y-40748D03*
G54D14*
X43307Y-40748D03*
X41338Y-42716D03*
X45275Y-42716D03*
X42322Y-42716D03*
X44291Y-42716D03*
G54D15*
X56299Y-43543D03*
X50275Y-44370D03*
X44803Y-44409D03*
X44330Y-45905D03*
X45629Y-45275D03*
X50787Y-44803D03*
X48070Y-45314D03*
G54D16*
X45000Y-45905D02*
X45629Y-45275D01*
X44330Y-45905D02*
X45000Y-45905D01*
X50275Y-45314D02*
X48070Y-45314D01*
X50787Y-44803D02*
X50275Y-45314D01*
G54D17*
G36*
X60973Y-52705D02*
X60768Y-52705D01*
X60768Y-42234D01*
X60766Y-42227D01*
X60766Y-41220D01*
X60766Y-40220D01*
X60694Y-40046D01*
X60560Y-39912D01*
X60386Y-39840D01*
X60197Y-39840D01*
X60022Y-39912D01*
X59889Y-40045D01*
X59816Y-40220D01*
X59816Y-40408D01*
X59888Y-40583D01*
X60022Y-40717D01*
X60196Y-40789D01*
X60385Y-40789D01*
X60559Y-40717D01*
X60693Y-40584D01*
X60766Y-40409D01*
X60766Y-40220D01*
X60766Y-41220D01*
X60694Y-41046D01*
X60560Y-40912D01*
X60386Y-40840D01*
X60197Y-40840D01*
X60022Y-40912D01*
X59889Y-41045D01*
X59816Y-41220D01*
X59816Y-41408D01*
X59888Y-41583D01*
X60022Y-41717D01*
X60196Y-41789D01*
X60385Y-41789D01*
X60559Y-41717D01*
X60693Y-41584D01*
X60766Y-41409D01*
X60766Y-41220D01*
X60766Y-42227D01*
X60701Y-42057D01*
X60685Y-42034D01*
X60610Y-42002D01*
X60603Y-42009D01*
X60603Y-41995D01*
X60571Y-41920D01*
X60399Y-41843D01*
X60210Y-41837D01*
X60034Y-41904D01*
X60010Y-41920D01*
X59979Y-41995D01*
X60291Y-42307D01*
X60603Y-41995D01*
X60603Y-42009D01*
X60298Y-42314D01*
X60610Y-42627D01*
X60685Y-42595D01*
X60763Y-42423D01*
X60768Y-42234D01*
X60768Y-52705D01*
X60571Y-52705D01*
X60693Y-52584D01*
X60766Y-52409D01*
X60766Y-52220D01*
X60766Y-51220D01*
X60766Y-50220D01*
X60766Y-49220D01*
X60766Y-48220D01*
X60766Y-47220D01*
X60766Y-46220D01*
X60766Y-45220D01*
X60766Y-44220D01*
X60766Y-43220D01*
X60694Y-43046D01*
X60603Y-42955D01*
X60603Y-42634D01*
X60291Y-42322D01*
X60284Y-42329D01*
X60284Y-42314D01*
X59972Y-42002D01*
X59896Y-42034D01*
X59819Y-42206D01*
X59814Y-42395D01*
X59881Y-42572D01*
X59896Y-42595D01*
X59972Y-42627D01*
X60284Y-42314D01*
X60284Y-42329D01*
X59979Y-42634D01*
X60010Y-42709D01*
X60183Y-42786D01*
X60372Y-42792D01*
X60548Y-42725D01*
X60571Y-42709D01*
X60603Y-42634D01*
X60603Y-42955D01*
X60560Y-42912D01*
X60386Y-42840D01*
X60197Y-42840D01*
X60022Y-42912D01*
X59889Y-43045D01*
X59816Y-43220D01*
X59816Y-43408D01*
X59888Y-43583D01*
X60022Y-43717D01*
X60196Y-43789D01*
X60385Y-43789D01*
X60559Y-43717D01*
X60693Y-43584D01*
X60766Y-43409D01*
X60766Y-43220D01*
X60766Y-44220D01*
X60694Y-44046D01*
X60560Y-43912D01*
X60386Y-43840D01*
X60197Y-43840D01*
X60022Y-43912D01*
X59889Y-44045D01*
X59816Y-44220D01*
X59816Y-44408D01*
X59888Y-44583D01*
X60022Y-44717D01*
X60196Y-44789D01*
X60385Y-44789D01*
X60559Y-44717D01*
X60693Y-44584D01*
X60766Y-44409D01*
X60766Y-44220D01*
X60766Y-45220D01*
X60694Y-45046D01*
X60560Y-44912D01*
X60386Y-44840D01*
X60197Y-44840D01*
X60022Y-44912D01*
X59889Y-45045D01*
X59816Y-45220D01*
X59816Y-45408D01*
X59888Y-45583D01*
X60022Y-45717D01*
X60196Y-45789D01*
X60385Y-45789D01*
X60559Y-45717D01*
X60693Y-45584D01*
X60766Y-45409D01*
X60766Y-45220D01*
X60766Y-46220D01*
X60694Y-46046D01*
X60560Y-45912D01*
X60386Y-45840D01*
X60197Y-45840D01*
X60022Y-45912D01*
X59889Y-46045D01*
X59816Y-46220D01*
X59816Y-46408D01*
X59888Y-46583D01*
X60022Y-46717D01*
X60196Y-46789D01*
X60385Y-46789D01*
X60559Y-46717D01*
X60693Y-46584D01*
X60766Y-46409D01*
X60766Y-46220D01*
X60766Y-47220D01*
X60694Y-47046D01*
X60560Y-46912D01*
X60386Y-46840D01*
X60197Y-46840D01*
X60022Y-46912D01*
X59889Y-47045D01*
X59816Y-47220D01*
X59816Y-47408D01*
X59888Y-47583D01*
X60022Y-47717D01*
X60196Y-47789D01*
X60385Y-47789D01*
X60559Y-47717D01*
X60693Y-47584D01*
X60766Y-47409D01*
X60766Y-47220D01*
X60766Y-48220D01*
X60694Y-48046D01*
X60560Y-47912D01*
X60386Y-47840D01*
X60197Y-47840D01*
X60022Y-47912D01*
X59889Y-48045D01*
X59816Y-48220D01*
X59816Y-48408D01*
X59888Y-48583D01*
X60022Y-48717D01*
X60196Y-48789D01*
X60385Y-48789D01*
X60559Y-48717D01*
X60693Y-48584D01*
X60766Y-48409D01*
X60766Y-48220D01*
X60766Y-49220D01*
X60694Y-49046D01*
X60560Y-48912D01*
X60386Y-48840D01*
X60197Y-48840D01*
X60022Y-48912D01*
X59889Y-49045D01*
X59816Y-49220D01*
X59816Y-49408D01*
X59888Y-49583D01*
X60022Y-49717D01*
X60196Y-49789D01*
X60385Y-49789D01*
X60559Y-49717D01*
X60693Y-49584D01*
X60766Y-49409D01*
X60766Y-49220D01*
X60766Y-50220D01*
X60694Y-50046D01*
X60560Y-49912D01*
X60386Y-49840D01*
X60197Y-49840D01*
X60022Y-49912D01*
X59889Y-50045D01*
X59816Y-50220D01*
X59816Y-50408D01*
X59888Y-50583D01*
X60022Y-50717D01*
X60196Y-50789D01*
X60385Y-50789D01*
X60559Y-50717D01*
X60693Y-50584D01*
X60766Y-50409D01*
X60766Y-50220D01*
X60766Y-51220D01*
X60694Y-51046D01*
X60560Y-50912D01*
X60386Y-50840D01*
X60197Y-50840D01*
X60022Y-50912D01*
X59889Y-51045D01*
X59816Y-51220D01*
X59816Y-51408D01*
X59888Y-51583D01*
X60022Y-51717D01*
X60196Y-51789D01*
X60385Y-51789D01*
X60559Y-51717D01*
X60693Y-51584D01*
X60766Y-51409D01*
X60766Y-51220D01*
X60766Y-52220D01*
X60694Y-52046D01*
X60560Y-51912D01*
X60386Y-51840D01*
X60197Y-51840D01*
X60022Y-51912D01*
X59889Y-52045D01*
X59816Y-52220D01*
X59816Y-52408D01*
X59888Y-52583D01*
X60010Y-52705D01*
X59571Y-52705D01*
X59693Y-52584D01*
X59766Y-52409D01*
X59766Y-52220D01*
X59766Y-51220D01*
X59766Y-50220D01*
X59766Y-49220D01*
X59766Y-48220D01*
X59766Y-47220D01*
X59766Y-46220D01*
X59766Y-45220D01*
X59766Y-44220D01*
X59766Y-43220D01*
X59766Y-42220D01*
X59766Y-41220D01*
X59766Y-41220D01*
X59766Y-40669D01*
X59766Y-40609D01*
X59766Y-39960D01*
X59743Y-39905D01*
X59701Y-39862D01*
X59645Y-39840D01*
X59586Y-39840D01*
X58936Y-39840D01*
X58881Y-39862D01*
X58839Y-39905D01*
X58816Y-39960D01*
X58816Y-40019D01*
X58816Y-40669D01*
X58839Y-40724D01*
X58881Y-40766D01*
X58936Y-40789D01*
X58996Y-40789D01*
X59645Y-40789D01*
X59701Y-40766D01*
X59743Y-40724D01*
X59766Y-40669D01*
X59766Y-41220D01*
X59694Y-41046D01*
X59560Y-40912D01*
X59386Y-40840D01*
X59197Y-40840D01*
X59022Y-40912D01*
X58889Y-41045D01*
X58816Y-41220D01*
X58816Y-41408D01*
X58888Y-41583D01*
X59022Y-41717D01*
X59196Y-41789D01*
X59385Y-41789D01*
X59559Y-41717D01*
X59693Y-41584D01*
X59766Y-41409D01*
X59766Y-41220D01*
X59766Y-42220D01*
X59694Y-42046D01*
X59560Y-41912D01*
X59386Y-41840D01*
X59197Y-41840D01*
X59022Y-41912D01*
X58889Y-42045D01*
X58816Y-42220D01*
X58816Y-42408D01*
X58888Y-42583D01*
X59022Y-42717D01*
X59196Y-42789D01*
X59385Y-42789D01*
X59559Y-42717D01*
X59693Y-42584D01*
X59766Y-42409D01*
X59766Y-42220D01*
X59766Y-43220D01*
X59694Y-43046D01*
X59560Y-42912D01*
X59386Y-42840D01*
X59197Y-42840D01*
X59022Y-42912D01*
X58889Y-43045D01*
X58816Y-43220D01*
X58816Y-43408D01*
X58888Y-43583D01*
X59022Y-43717D01*
X59196Y-43789D01*
X59385Y-43789D01*
X59559Y-43717D01*
X59693Y-43584D01*
X59766Y-43409D01*
X59766Y-43220D01*
X59766Y-44220D01*
X59694Y-44046D01*
X59560Y-43912D01*
X59386Y-43840D01*
X59197Y-43840D01*
X59022Y-43912D01*
X58889Y-44045D01*
X58816Y-44220D01*
X58816Y-44408D01*
X58888Y-44583D01*
X59022Y-44717D01*
X59196Y-44789D01*
X59385Y-44789D01*
X59559Y-44717D01*
X59693Y-44584D01*
X59766Y-44409D01*
X59766Y-44220D01*
X59766Y-45220D01*
X59694Y-45046D01*
X59560Y-44912D01*
X59386Y-44840D01*
X59197Y-44840D01*
X59022Y-44912D01*
X58889Y-45045D01*
X58816Y-45220D01*
X58816Y-45408D01*
X58888Y-45583D01*
X59022Y-45717D01*
X59196Y-45789D01*
X59385Y-45789D01*
X59559Y-45717D01*
X59693Y-45584D01*
X59766Y-45409D01*
X59766Y-45220D01*
X59766Y-46220D01*
X59694Y-46046D01*
X59560Y-45912D01*
X59386Y-45840D01*
X59197Y-45840D01*
X59022Y-45912D01*
X58889Y-46045D01*
X58816Y-46220D01*
X58816Y-46408D01*
X58888Y-46583D01*
X59022Y-46717D01*
X59196Y-46789D01*
X59385Y-46789D01*
X59559Y-46717D01*
X59693Y-46584D01*
X59766Y-46409D01*
X59766Y-46220D01*
X59766Y-47220D01*
X59694Y-47046D01*
X59560Y-46912D01*
X59386Y-46840D01*
X59197Y-46840D01*
X59022Y-46912D01*
X58889Y-47045D01*
X58816Y-47220D01*
X58816Y-47408D01*
X58888Y-47583D01*
X59022Y-47717D01*
X59196Y-47789D01*
X59385Y-47789D01*
X59559Y-47717D01*
X59693Y-47584D01*
X59766Y-47409D01*
X59766Y-47220D01*
X59766Y-48220D01*
X59694Y-48046D01*
X59560Y-47912D01*
X59386Y-47840D01*
X59197Y-47840D01*
X59022Y-47912D01*
X58889Y-48045D01*
X58816Y-48220D01*
X58816Y-48408D01*
X58888Y-48583D01*
X59022Y-48717D01*
X59196Y-48789D01*
X59385Y-48789D01*
X59559Y-48717D01*
X59693Y-48584D01*
X59766Y-48409D01*
X59766Y-48220D01*
X59766Y-49220D01*
X59694Y-49046D01*
X59560Y-48912D01*
X59386Y-48840D01*
X59197Y-48840D01*
X59022Y-48912D01*
X58889Y-49045D01*
X58816Y-49220D01*
X58816Y-49408D01*
X58888Y-49583D01*
X59022Y-49717D01*
X59196Y-49789D01*
X59385Y-49789D01*
X59559Y-49717D01*
X59693Y-49584D01*
X59766Y-49409D01*
X59766Y-49220D01*
X59766Y-50220D01*
X59694Y-50046D01*
X59560Y-49912D01*
X59386Y-49840D01*
X59197Y-49840D01*
X59022Y-49912D01*
X58889Y-50045D01*
X58816Y-50220D01*
X58816Y-50408D01*
X58888Y-50583D01*
X59022Y-50717D01*
X59196Y-50789D01*
X59385Y-50789D01*
X59559Y-50717D01*
X59693Y-50584D01*
X59766Y-50409D01*
X59766Y-50220D01*
X59766Y-51220D01*
X59694Y-51046D01*
X59560Y-50912D01*
X59386Y-50840D01*
X59197Y-50840D01*
X59022Y-50912D01*
X58889Y-51045D01*
X58816Y-51220D01*
X58816Y-51408D01*
X58888Y-51583D01*
X59022Y-51717D01*
X59196Y-51789D01*
X59385Y-51789D01*
X59559Y-51717D01*
X59693Y-51584D01*
X59766Y-51409D01*
X59766Y-51220D01*
X59766Y-52220D01*
X59694Y-52046D01*
X59560Y-51912D01*
X59386Y-51840D01*
X59197Y-51840D01*
X59022Y-51912D01*
X58889Y-52045D01*
X58816Y-52220D01*
X58816Y-52408D01*
X58888Y-52583D01*
X59010Y-52705D01*
X58593Y-52705D01*
X58593Y-48296D01*
X58457Y-48296D01*
X58457Y-42601D01*
X58368Y-42386D01*
X58204Y-42222D01*
X58147Y-42198D01*
X58147Y-40693D01*
X58105Y-40593D01*
X58028Y-40516D01*
X57928Y-40475D01*
X57819Y-40474D01*
X57719Y-40516D01*
X57642Y-40593D01*
X57601Y-40693D01*
X57600Y-40802D01*
X57642Y-40902D01*
X57719Y-40979D01*
X57819Y-41021D01*
X57928Y-41021D01*
X58028Y-40979D01*
X58105Y-40902D01*
X58146Y-40802D01*
X58147Y-40693D01*
X58147Y-42198D01*
X57990Y-42133D01*
X57758Y-42133D01*
X57544Y-42221D01*
X57381Y-42384D01*
X57220Y-42222D01*
X57006Y-42133D01*
X56774Y-42133D01*
X56559Y-42221D01*
X56491Y-42289D01*
X56491Y-40650D01*
X56409Y-40433D01*
X56389Y-40402D01*
X56302Y-40357D01*
X56295Y-40364D01*
X56295Y-40350D01*
X56250Y-40264D01*
X56039Y-40168D01*
X55807Y-40161D01*
X55590Y-40243D01*
X55560Y-40264D01*
X55515Y-40350D01*
X55905Y-40740D01*
X56295Y-40350D01*
X56295Y-40364D01*
X55912Y-40748D01*
X56302Y-41138D01*
X56389Y-41093D01*
X56484Y-40881D01*
X56491Y-40650D01*
X56491Y-42289D01*
X56395Y-42385D01*
X56306Y-42600D01*
X56306Y-42832D01*
X56395Y-43046D01*
X56559Y-43210D01*
X56773Y-43299D01*
X57005Y-43299D01*
X57219Y-43211D01*
X57382Y-43048D01*
X57543Y-43210D01*
X57757Y-43299D01*
X57989Y-43299D01*
X58203Y-43211D01*
X58368Y-43047D01*
X58456Y-42833D01*
X58457Y-42601D01*
X58457Y-48296D01*
X56295Y-48296D01*
X56295Y-41145D01*
X55905Y-40755D01*
X55898Y-40762D01*
X55898Y-40748D01*
X55508Y-40357D01*
X55421Y-40402D01*
X55326Y-40614D01*
X55319Y-40845D01*
X55401Y-41062D01*
X55421Y-41093D01*
X55508Y-41138D01*
X55898Y-40748D01*
X55898Y-40762D01*
X55515Y-41145D01*
X55560Y-41231D01*
X55771Y-41327D01*
X56003Y-41334D01*
X56220Y-41252D01*
X56250Y-41231D01*
X56295Y-41145D01*
X56295Y-48296D01*
X55504Y-48296D01*
X55504Y-42601D01*
X55415Y-42386D01*
X55251Y-42222D01*
X55037Y-42133D01*
X54805Y-42133D01*
X54591Y-42221D01*
X54428Y-42384D01*
X54267Y-42222D01*
X54210Y-42198D01*
X54210Y-40693D01*
X54168Y-40593D01*
X54091Y-40516D01*
X53991Y-40475D01*
X53882Y-40474D01*
X53782Y-40516D01*
X53705Y-40593D01*
X53664Y-40693D01*
X53663Y-40802D01*
X53705Y-40902D01*
X53782Y-40979D01*
X53882Y-41021D01*
X53991Y-41021D01*
X54091Y-40979D01*
X54168Y-40902D01*
X54209Y-40802D01*
X54210Y-40693D01*
X54210Y-42198D01*
X54053Y-42133D01*
X53821Y-42133D01*
X53607Y-42221D01*
X53442Y-42385D01*
X53354Y-42600D01*
X53353Y-42832D01*
X53442Y-43046D01*
X53606Y-43210D01*
X53820Y-43299D01*
X54052Y-43299D01*
X54266Y-43211D01*
X54429Y-43048D01*
X54590Y-43210D01*
X54804Y-43299D01*
X55036Y-43299D01*
X55251Y-43211D01*
X55415Y-43047D01*
X55504Y-42833D01*
X55504Y-42601D01*
X55504Y-48296D01*
X51370Y-48296D01*
X51370Y-42601D01*
X51281Y-42386D01*
X51118Y-42222D01*
X51060Y-42198D01*
X51060Y-40693D01*
X51019Y-40593D01*
X50942Y-40516D01*
X50841Y-40475D01*
X50733Y-40474D01*
X50632Y-40516D01*
X50556Y-40593D01*
X50514Y-40693D01*
X50514Y-40802D01*
X50555Y-40902D01*
X50632Y-40979D01*
X50732Y-41021D01*
X50841Y-41021D01*
X50941Y-40979D01*
X51018Y-40902D01*
X51060Y-40802D01*
X51060Y-40693D01*
X51060Y-42198D01*
X50903Y-42133D01*
X50671Y-42133D01*
X50457Y-42221D01*
X50295Y-42384D01*
X50133Y-42222D01*
X49919Y-42133D01*
X49687Y-42133D01*
X49473Y-42221D01*
X49402Y-42293D01*
X49402Y-40632D01*
X49313Y-40418D01*
X49149Y-40254D01*
X48935Y-40165D01*
X48703Y-40164D01*
X48489Y-40253D01*
X48324Y-40417D01*
X48235Y-40631D01*
X48235Y-40863D01*
X48324Y-41077D01*
X48488Y-41242D01*
X48702Y-41331D01*
X48934Y-41331D01*
X49148Y-41242D01*
X49312Y-41078D01*
X49401Y-40864D01*
X49402Y-40632D01*
X49402Y-42293D01*
X49309Y-42385D01*
X49220Y-42600D01*
X49219Y-42832D01*
X49308Y-43046D01*
X49472Y-43210D01*
X49686Y-43299D01*
X49918Y-43299D01*
X50133Y-43211D01*
X50295Y-43048D01*
X50456Y-43210D01*
X50670Y-43299D01*
X50902Y-43299D01*
X51117Y-43211D01*
X51281Y-43047D01*
X51370Y-42833D01*
X51370Y-42601D01*
X51370Y-48296D01*
X51112Y-48296D01*
X51112Y-44738D01*
X51063Y-44619D01*
X50971Y-44527D01*
X50852Y-44478D01*
X50723Y-44478D01*
X50603Y-44527D01*
X50512Y-44618D01*
X50462Y-44738D01*
X50462Y-44804D01*
X50180Y-45086D01*
X48417Y-45086D01*
X48417Y-42601D01*
X48329Y-42386D01*
X48165Y-42222D01*
X47951Y-42133D01*
X47719Y-42133D01*
X47504Y-42221D01*
X47342Y-42384D01*
X47181Y-42222D01*
X47123Y-42198D01*
X47123Y-40693D01*
X47081Y-40593D01*
X47005Y-40516D01*
X46904Y-40475D01*
X46796Y-40474D01*
X46695Y-40516D01*
X46619Y-40593D01*
X46577Y-40693D01*
X46577Y-40802D01*
X46618Y-40902D01*
X46695Y-40979D01*
X46795Y-41021D01*
X46904Y-41021D01*
X47004Y-40979D01*
X47081Y-40902D01*
X47123Y-40802D01*
X47123Y-40693D01*
X47123Y-42198D01*
X46966Y-42133D01*
X46734Y-42133D01*
X46520Y-42221D01*
X46356Y-42385D01*
X46267Y-42600D01*
X46267Y-42832D01*
X46355Y-43046D01*
X46519Y-43210D01*
X46733Y-43299D01*
X46965Y-43299D01*
X47180Y-43211D01*
X47342Y-43048D01*
X47503Y-43210D01*
X47718Y-43299D01*
X47950Y-43299D01*
X48164Y-43211D01*
X48328Y-43047D01*
X48417Y-42833D01*
X48417Y-42601D01*
X48417Y-45086D01*
X48301Y-45086D01*
X48255Y-45039D01*
X48135Y-44990D01*
X48006Y-44989D01*
X47887Y-45039D01*
X47795Y-45130D01*
X47745Y-45250D01*
X47745Y-45379D01*
X47795Y-45498D01*
X47886Y-45590D01*
X48005Y-45639D01*
X48135Y-45640D01*
X48254Y-45590D01*
X48301Y-45543D01*
X50275Y-45543D01*
X50363Y-45526D01*
X50437Y-45476D01*
X50785Y-45128D01*
X50851Y-45128D01*
X50971Y-45078D01*
X51062Y-44987D01*
X51112Y-44868D01*
X51112Y-44738D01*
X51112Y-48296D01*
X45954Y-48296D01*
X45954Y-45211D01*
X45905Y-45091D01*
X45858Y-45044D01*
X45858Y-42601D01*
X45770Y-42386D01*
X45606Y-42222D01*
X45548Y-42198D01*
X45548Y-40693D01*
X45507Y-40593D01*
X45430Y-40516D01*
X45330Y-40475D01*
X45221Y-40474D01*
X45121Y-40516D01*
X45044Y-40593D01*
X45002Y-40693D01*
X45002Y-40802D01*
X45043Y-40902D01*
X45120Y-40979D01*
X45221Y-41021D01*
X45329Y-41021D01*
X45430Y-40979D01*
X45506Y-40902D01*
X45548Y-40802D01*
X45548Y-40693D01*
X45548Y-42198D01*
X45392Y-42133D01*
X45160Y-42133D01*
X44945Y-42221D01*
X44783Y-42384D01*
X44622Y-42222D01*
X44407Y-42133D01*
X44175Y-42133D01*
X43961Y-42221D01*
X43890Y-42293D01*
X43890Y-40632D01*
X43801Y-40418D01*
X43637Y-40254D01*
X43423Y-40165D01*
X43191Y-40164D01*
X42977Y-40253D01*
X42813Y-40417D01*
X42724Y-40631D01*
X42723Y-40863D01*
X42812Y-41077D01*
X42976Y-41242D01*
X43190Y-41331D01*
X43422Y-41331D01*
X43636Y-41242D01*
X43801Y-41078D01*
X43890Y-40864D01*
X43890Y-40632D01*
X43890Y-42293D01*
X43797Y-42385D01*
X43708Y-42600D01*
X43708Y-42832D01*
X43796Y-43046D01*
X43960Y-43210D01*
X44174Y-43299D01*
X44406Y-43299D01*
X44621Y-43211D01*
X44783Y-43048D01*
X44944Y-43210D01*
X45159Y-43299D01*
X45391Y-43299D01*
X45605Y-43211D01*
X45769Y-43047D01*
X45858Y-42833D01*
X45858Y-42601D01*
X45858Y-45044D01*
X45814Y-45000D01*
X45694Y-44950D01*
X45565Y-44950D01*
X45446Y-44999D01*
X45354Y-45091D01*
X45304Y-45210D01*
X45304Y-45277D01*
X44905Y-45676D01*
X44561Y-45676D01*
X44515Y-45630D01*
X44395Y-45580D01*
X44266Y-45580D01*
X44146Y-45629D01*
X44055Y-45721D01*
X44005Y-45840D01*
X44005Y-45969D01*
X44055Y-46089D01*
X44146Y-46180D01*
X44265Y-46230D01*
X44395Y-46230D01*
X44514Y-46181D01*
X44561Y-46134D01*
X45000Y-46134D01*
X45087Y-46116D01*
X45161Y-46067D01*
X45628Y-45600D01*
X45694Y-45600D01*
X45813Y-45551D01*
X45905Y-45459D01*
X45954Y-45340D01*
X45954Y-45211D01*
X45954Y-48296D01*
X42906Y-48296D01*
X42906Y-42601D01*
X42817Y-42386D01*
X42653Y-42222D01*
X42439Y-42133D01*
X42207Y-42133D01*
X41992Y-42221D01*
X41830Y-42384D01*
X41669Y-42222D01*
X41611Y-42198D01*
X41611Y-40693D01*
X41570Y-40593D01*
X41493Y-40516D01*
X41393Y-40475D01*
X41284Y-40474D01*
X41184Y-40516D01*
X41107Y-40593D01*
X41065Y-40693D01*
X41065Y-40802D01*
X41106Y-40902D01*
X41183Y-40979D01*
X41284Y-41021D01*
X41392Y-41021D01*
X41493Y-40979D01*
X41569Y-40902D01*
X41611Y-40802D01*
X41611Y-40693D01*
X41611Y-42198D01*
X41455Y-42133D01*
X41223Y-42133D01*
X41008Y-42221D01*
X40844Y-42385D01*
X40755Y-42600D01*
X40755Y-42832D01*
X40843Y-43046D01*
X41007Y-43210D01*
X41222Y-43299D01*
X41454Y-43299D01*
X41668Y-43211D01*
X41830Y-43048D01*
X41992Y-43210D01*
X42206Y-43299D01*
X42438Y-43299D01*
X42652Y-43211D01*
X42816Y-43047D01*
X42905Y-42833D01*
X42906Y-42601D01*
X42906Y-48296D01*
X39813Y-48296D01*
X39813Y-39813D01*
X41065Y-39813D01*
X41065Y-39817D01*
X41106Y-39918D01*
X41183Y-39995D01*
X41284Y-40036D01*
X41392Y-40036D01*
X41493Y-39995D01*
X41569Y-39918D01*
X41611Y-39818D01*
X41611Y-39813D01*
X45002Y-39813D01*
X45002Y-39817D01*
X45043Y-39918D01*
X45120Y-39995D01*
X45221Y-40036D01*
X45329Y-40036D01*
X45430Y-39995D01*
X45506Y-39918D01*
X45548Y-39818D01*
X45548Y-39813D01*
X46577Y-39813D01*
X46577Y-39817D01*
X46618Y-39918D01*
X46695Y-39995D01*
X46795Y-40036D01*
X46904Y-40036D01*
X47004Y-39995D01*
X47081Y-39918D01*
X47123Y-39818D01*
X47123Y-39813D01*
X50514Y-39813D01*
X50514Y-39817D01*
X50555Y-39918D01*
X50632Y-39995D01*
X50732Y-40036D01*
X50841Y-40036D01*
X50941Y-39995D01*
X51018Y-39918D01*
X51060Y-39818D01*
X51060Y-39813D01*
X53663Y-39813D01*
X53663Y-39817D01*
X53705Y-39918D01*
X53782Y-39995D01*
X53882Y-40036D01*
X53991Y-40036D01*
X54091Y-39995D01*
X54168Y-39918D01*
X54209Y-39818D01*
X54209Y-39813D01*
X57600Y-39813D01*
X57600Y-39817D01*
X57642Y-39918D01*
X57719Y-39995D01*
X57819Y-40036D01*
X57928Y-40036D01*
X58028Y-39995D01*
X58105Y-39918D01*
X58146Y-39818D01*
X58147Y-39813D01*
X60973Y-39813D01*
X60973Y-52705D01*
X60973Y-52705D01*
G37*
X60973Y-52705D02*
X60768Y-52705D01*
X60768Y-42234D01*
X60766Y-42227D01*
X60766Y-41220D01*
X60766Y-40220D01*
X60694Y-40046D01*
X60560Y-39912D01*
X60386Y-39840D01*
X60197Y-39840D01*
X60022Y-39912D01*
X59889Y-40045D01*
X59816Y-40220D01*
X59816Y-40408D01*
X59888Y-40583D01*
X60022Y-40717D01*
X60196Y-40789D01*
X60385Y-40789D01*
X60559Y-40717D01*
X60693Y-40584D01*
X60766Y-40409D01*
X60766Y-40220D01*
X60766Y-41220D01*
X60694Y-41046D01*
X60560Y-40912D01*
X60386Y-40840D01*
X60197Y-40840D01*
X60022Y-40912D01*
X59889Y-41045D01*
X59816Y-41220D01*
X59816Y-41408D01*
X59888Y-41583D01*
X60022Y-41717D01*
X60196Y-41789D01*
X60385Y-41789D01*
X60559Y-41717D01*
X60693Y-41584D01*
X60766Y-41409D01*
X60766Y-41220D01*
X60766Y-42227D01*
X60701Y-42057D01*
X60685Y-42034D01*
X60610Y-42002D01*
X60603Y-42009D01*
X60603Y-41995D01*
X60571Y-41920D01*
X60399Y-41843D01*
X60210Y-41837D01*
X60034Y-41904D01*
X60010Y-41920D01*
X59979Y-41995D01*
X60291Y-42307D01*
X60603Y-41995D01*
X60603Y-42009D01*
X60298Y-42314D01*
X60610Y-42627D01*
X60685Y-42595D01*
X60763Y-42423D01*
X60768Y-42234D01*
X60768Y-52705D01*
X60571Y-52705D01*
X60693Y-52584D01*
X60766Y-52409D01*
X60766Y-52220D01*
X60766Y-51220D01*
X60766Y-50220D01*
X60766Y-49220D01*
X60766Y-48220D01*
X60766Y-47220D01*
X60766Y-46220D01*
X60766Y-45220D01*
X60766Y-44220D01*
X60766Y-43220D01*
X60694Y-43046D01*
X60603Y-42955D01*
X60603Y-42634D01*
X60291Y-42322D01*
X60284Y-42329D01*
X60284Y-42314D01*
X59972Y-42002D01*
X59896Y-42034D01*
X59819Y-42206D01*
X59814Y-42395D01*
X59881Y-42572D01*
X59896Y-42595D01*
X59972Y-42627D01*
X60284Y-42314D01*
X60284Y-42329D01*
X59979Y-42634D01*
X60010Y-42709D01*
X60183Y-42786D01*
X60372Y-42792D01*
X60548Y-42725D01*
X60571Y-42709D01*
X60603Y-42634D01*
X60603Y-42955D01*
X60560Y-42912D01*
X60386Y-42840D01*
X60197Y-42840D01*
X60022Y-42912D01*
X59889Y-43045D01*
X59816Y-43220D01*
X59816Y-43408D01*
X59888Y-43583D01*
X60022Y-43717D01*
X60196Y-43789D01*
X60385Y-43789D01*
X60559Y-43717D01*
X60693Y-43584D01*
X60766Y-43409D01*
X60766Y-43220D01*
X60766Y-44220D01*
X60694Y-44046D01*
X60560Y-43912D01*
X60386Y-43840D01*
X60197Y-43840D01*
X60022Y-43912D01*
X59889Y-44045D01*
X59816Y-44220D01*
X59816Y-44408D01*
X59888Y-44583D01*
X60022Y-44717D01*
X60196Y-44789D01*
X60385Y-44789D01*
X60559Y-44717D01*
X60693Y-44584D01*
X60766Y-44409D01*
X60766Y-44220D01*
X60766Y-45220D01*
X60694Y-45046D01*
X60560Y-44912D01*
X60386Y-44840D01*
X60197Y-44840D01*
X60022Y-44912D01*
X59889Y-45045D01*
X59816Y-45220D01*
X59816Y-45408D01*
X59888Y-45583D01*
X60022Y-45717D01*
X60196Y-45789D01*
X60385Y-45789D01*
X60559Y-45717D01*
X60693Y-45584D01*
X60766Y-45409D01*
X60766Y-45220D01*
X60766Y-46220D01*
X60694Y-46046D01*
X60560Y-45912D01*
X60386Y-45840D01*
X60197Y-45840D01*
X60022Y-45912D01*
X59889Y-46045D01*
X59816Y-46220D01*
X59816Y-46408D01*
X59888Y-46583D01*
X60022Y-46717D01*
X60196Y-46789D01*
X60385Y-46789D01*
X60559Y-46717D01*
X60693Y-46584D01*
X60766Y-46409D01*
X60766Y-46220D01*
X60766Y-47220D01*
X60694Y-47046D01*
X60560Y-46912D01*
X60386Y-46840D01*
X60197Y-46840D01*
X60022Y-46912D01*
X59889Y-47045D01*
X59816Y-47220D01*
X59816Y-47408D01*
X59888Y-47583D01*
X60022Y-47717D01*
X60196Y-47789D01*
X60385Y-47789D01*
X60559Y-47717D01*
X60693Y-47584D01*
X60766Y-47409D01*
X60766Y-47220D01*
X60766Y-48220D01*
X60694Y-48046D01*
X60560Y-47912D01*
X60386Y-47840D01*
X60197Y-47840D01*
X60022Y-47912D01*
X59889Y-48045D01*
X59816Y-48220D01*
X59816Y-48408D01*
X59888Y-48583D01*
X60022Y-48717D01*
X60196Y-48789D01*
X60385Y-48789D01*
X60559Y-48717D01*
X60693Y-48584D01*
X60766Y-48409D01*
X60766Y-48220D01*
X60766Y-49220D01*
X60694Y-49046D01*
X60560Y-48912D01*
X60386Y-48840D01*
X60197Y-48840D01*
X60022Y-48912D01*
X59889Y-49045D01*
X59816Y-49220D01*
X59816Y-49408D01*
X59888Y-49583D01*
X60022Y-49717D01*
X60196Y-49789D01*
X60385Y-49789D01*
X60559Y-49717D01*
X60693Y-49584D01*
X60766Y-49409D01*
X60766Y-49220D01*
X60766Y-50220D01*
X60694Y-50046D01*
X60560Y-49912D01*
X60386Y-49840D01*
X60197Y-49840D01*
X60022Y-49912D01*
X59889Y-50045D01*
X59816Y-50220D01*
X59816Y-50408D01*
X59888Y-50583D01*
X60022Y-50717D01*
X60196Y-50789D01*
X60385Y-50789D01*
X60559Y-50717D01*
X60693Y-50584D01*
X60766Y-50409D01*
X60766Y-50220D01*
X60766Y-51220D01*
X60694Y-51046D01*
X60560Y-50912D01*
X60386Y-50840D01*
X60197Y-50840D01*
X60022Y-50912D01*
X59889Y-51045D01*
X59816Y-51220D01*
X59816Y-51408D01*
X59888Y-51583D01*
X60022Y-51717D01*
X60196Y-51789D01*
X60385Y-51789D01*
X60559Y-51717D01*
X60693Y-51584D01*
X60766Y-51409D01*
X60766Y-51220D01*
X60766Y-52220D01*
X60694Y-52046D01*
X60560Y-51912D01*
X60386Y-51840D01*
X60197Y-51840D01*
X60022Y-51912D01*
X59889Y-52045D01*
X59816Y-52220D01*
X59816Y-52408D01*
X59888Y-52583D01*
X60010Y-52705D01*
X59571Y-52705D01*
X59693Y-52584D01*
X59766Y-52409D01*
X59766Y-52220D01*
X59766Y-51220D01*
X59766Y-50220D01*
X59766Y-49220D01*
X59766Y-48220D01*
X59766Y-47220D01*
X59766Y-46220D01*
X59766Y-45220D01*
X59766Y-44220D01*
X59766Y-43220D01*
X59766Y-42220D01*
X59766Y-41220D01*
X59766Y-41220D01*
X59766Y-40669D01*
X59766Y-40609D01*
X59766Y-39960D01*
X59743Y-39905D01*
X59701Y-39862D01*
X59645Y-39840D01*
X59586Y-39840D01*
X58936Y-39840D01*
X58881Y-39862D01*
X58839Y-39905D01*
X58816Y-39960D01*
X58816Y-40019D01*
X58816Y-40669D01*
X58839Y-40724D01*
X58881Y-40766D01*
X58936Y-40789D01*
X58996Y-40789D01*
X59645Y-40789D01*
X59701Y-40766D01*
X59743Y-40724D01*
X59766Y-40669D01*
X59766Y-41220D01*
X59694Y-41046D01*
X59560Y-40912D01*
X59386Y-40840D01*
X59197Y-40840D01*
X59022Y-40912D01*
X58889Y-41045D01*
X58816Y-41220D01*
X58816Y-41408D01*
X58888Y-41583D01*
X59022Y-41717D01*
X59196Y-41789D01*
X59385Y-41789D01*
X59559Y-41717D01*
X59693Y-41584D01*
X59766Y-41409D01*
X59766Y-41220D01*
X59766Y-42220D01*
X59694Y-42046D01*
X59560Y-41912D01*
X59386Y-41840D01*
X59197Y-41840D01*
X59022Y-41912D01*
X58889Y-42045D01*
X58816Y-42220D01*
X58816Y-42408D01*
X58888Y-42583D01*
X59022Y-42717D01*
X59196Y-42789D01*
X59385Y-42789D01*
X59559Y-42717D01*
X59693Y-42584D01*
X59766Y-42409D01*
X59766Y-42220D01*
X59766Y-43220D01*
X59694Y-43046D01*
X59560Y-42912D01*
X59386Y-42840D01*
X59197Y-42840D01*
X59022Y-42912D01*
X58889Y-43045D01*
X58816Y-43220D01*
X58816Y-43408D01*
X58888Y-43583D01*
X59022Y-43717D01*
X59196Y-43789D01*
X59385Y-43789D01*
X59559Y-43717D01*
X59693Y-43584D01*
X59766Y-43409D01*
X59766Y-43220D01*
X59766Y-44220D01*
X59694Y-44046D01*
X59560Y-43912D01*
X59386Y-43840D01*
X59197Y-43840D01*
X59022Y-43912D01*
X58889Y-44045D01*
X58816Y-44220D01*
X58816Y-44408D01*
X58888Y-44583D01*
X59022Y-44717D01*
X59196Y-44789D01*
X59385Y-44789D01*
X59559Y-44717D01*
X59693Y-44584D01*
X59766Y-44409D01*
X59766Y-44220D01*
X59766Y-45220D01*
X59694Y-45046D01*
X59560Y-44912D01*
X59386Y-44840D01*
X59197Y-44840D01*
X59022Y-44912D01*
X58889Y-45045D01*
X58816Y-45220D01*
X58816Y-45408D01*
X58888Y-45583D01*
X59022Y-45717D01*
X59196Y-45789D01*
X59385Y-45789D01*
X59559Y-45717D01*
X59693Y-45584D01*
X59766Y-45409D01*
X59766Y-45220D01*
X59766Y-46220D01*
X59694Y-46046D01*
X59560Y-45912D01*
X59386Y-45840D01*
X59197Y-45840D01*
X59022Y-45912D01*
X58889Y-46045D01*
X58816Y-46220D01*
X58816Y-46408D01*
X58888Y-46583D01*
X59022Y-46717D01*
X59196Y-46789D01*
X59385Y-46789D01*
X59559Y-46717D01*
X59693Y-46584D01*
X59766Y-46409D01*
X59766Y-46220D01*
X59766Y-47220D01*
X59694Y-47046D01*
X59560Y-46912D01*
X59386Y-46840D01*
X59197Y-46840D01*
X59022Y-46912D01*
X58889Y-47045D01*
X58816Y-47220D01*
X58816Y-47408D01*
X58888Y-47583D01*
X59022Y-47717D01*
X59196Y-47789D01*
X59385Y-47789D01*
X59559Y-47717D01*
X59693Y-47584D01*
X59766Y-47409D01*
X59766Y-47220D01*
X59766Y-48220D01*
X59694Y-48046D01*
X59560Y-47912D01*
X59386Y-47840D01*
X59197Y-47840D01*
X59022Y-47912D01*
X58889Y-48045D01*
X58816Y-48220D01*
X58816Y-48408D01*
X58888Y-48583D01*
X59022Y-48717D01*
X59196Y-48789D01*
X59385Y-48789D01*
X59559Y-48717D01*
X59693Y-48584D01*
X59766Y-48409D01*
X59766Y-48220D01*
X59766Y-49220D01*
X59694Y-49046D01*
X59560Y-48912D01*
X59386Y-48840D01*
X59197Y-48840D01*
X59022Y-48912D01*
X58889Y-49045D01*
X58816Y-49220D01*
X58816Y-49408D01*
X58888Y-49583D01*
X59022Y-49717D01*
X59196Y-49789D01*
X59385Y-49789D01*
X59559Y-49717D01*
X59693Y-49584D01*
X59766Y-49409D01*
X59766Y-49220D01*
X59766Y-50220D01*
X59694Y-50046D01*
X59560Y-49912D01*
X59386Y-49840D01*
X59197Y-49840D01*
X59022Y-49912D01*
X58889Y-50045D01*
X58816Y-50220D01*
X58816Y-50408D01*
X58888Y-50583D01*
X59022Y-50717D01*
X59196Y-50789D01*
X59385Y-50789D01*
X59559Y-50717D01*
X59693Y-50584D01*
X59766Y-50409D01*
X59766Y-50220D01*
X59766Y-51220D01*
X59694Y-51046D01*
X59560Y-50912D01*
X59386Y-50840D01*
X59197Y-50840D01*
X59022Y-50912D01*
X58889Y-51045D01*
X58816Y-51220D01*
X58816Y-51408D01*
X58888Y-51583D01*
X59022Y-51717D01*
X59196Y-51789D01*
X59385Y-51789D01*
X59559Y-51717D01*
X59693Y-51584D01*
X59766Y-51409D01*
X59766Y-51220D01*
X59766Y-52220D01*
X59694Y-52046D01*
X59560Y-51912D01*
X59386Y-51840D01*
X59197Y-51840D01*
X59022Y-51912D01*
X58889Y-52045D01*
X58816Y-52220D01*
X58816Y-52408D01*
X58888Y-52583D01*
X59010Y-52705D01*
X58593Y-52705D01*
X58593Y-48296D01*
X58457Y-48296D01*
X58457Y-42601D01*
X58368Y-42386D01*
X58204Y-42222D01*
X58147Y-42198D01*
X58147Y-40693D01*
X58105Y-40593D01*
X58028Y-40516D01*
X57928Y-40475D01*
X57819Y-40474D01*
X57719Y-40516D01*
X57642Y-40593D01*
X57601Y-40693D01*
X57600Y-40802D01*
X57642Y-40902D01*
X57719Y-40979D01*
X57819Y-41021D01*
X57928Y-41021D01*
X58028Y-40979D01*
X58105Y-40902D01*
X58146Y-40802D01*
X58147Y-40693D01*
X58147Y-42198D01*
X57990Y-42133D01*
X57758Y-42133D01*
X57544Y-42221D01*
X57381Y-42384D01*
X57220Y-42222D01*
X57006Y-42133D01*
X56774Y-42133D01*
X56559Y-42221D01*
X56491Y-42289D01*
X56491Y-40650D01*
X56409Y-40433D01*
X56389Y-40402D01*
X56302Y-40357D01*
X56295Y-40364D01*
X56295Y-40350D01*
X56250Y-40264D01*
X56039Y-40168D01*
X55807Y-40161D01*
X55590Y-40243D01*
X55560Y-40264D01*
X55515Y-40350D01*
X55905Y-40740D01*
X56295Y-40350D01*
X56295Y-40364D01*
X55912Y-40748D01*
X56302Y-41138D01*
X56389Y-41093D01*
X56484Y-40881D01*
X56491Y-40650D01*
X56491Y-42289D01*
X56395Y-42385D01*
X56306Y-42600D01*
X56306Y-42832D01*
X56395Y-43046D01*
X56559Y-43210D01*
X56773Y-43299D01*
X57005Y-43299D01*
X57219Y-43211D01*
X57382Y-43048D01*
X57543Y-43210D01*
X57757Y-43299D01*
X57989Y-43299D01*
X58203Y-43211D01*
X58368Y-43047D01*
X58456Y-42833D01*
X58457Y-42601D01*
X58457Y-48296D01*
X56295Y-48296D01*
X56295Y-41145D01*
X55905Y-40755D01*
X55898Y-40762D01*
X55898Y-40748D01*
X55508Y-40357D01*
X55421Y-40402D01*
X55326Y-40614D01*
X55319Y-40845D01*
X55401Y-41062D01*
X55421Y-41093D01*
X55508Y-41138D01*
X55898Y-40748D01*
X55898Y-40762D01*
X55515Y-41145D01*
X55560Y-41231D01*
X55771Y-41327D01*
X56003Y-41334D01*
X56220Y-41252D01*
X56250Y-41231D01*
X56295Y-41145D01*
X56295Y-48296D01*
X55504Y-48296D01*
X55504Y-42601D01*
X55415Y-42386D01*
X55251Y-42222D01*
X55037Y-42133D01*
X54805Y-42133D01*
X54591Y-42221D01*
X54428Y-42384D01*
X54267Y-42222D01*
X54210Y-42198D01*
X54210Y-40693D01*
X54168Y-40593D01*
X54091Y-40516D01*
X53991Y-40475D01*
X53882Y-40474D01*
X53782Y-40516D01*
X53705Y-40593D01*
X53664Y-40693D01*
X53663Y-40802D01*
X53705Y-40902D01*
X53782Y-40979D01*
X53882Y-41021D01*
X53991Y-41021D01*
X54091Y-40979D01*
X54168Y-40902D01*
X54209Y-40802D01*
X54210Y-40693D01*
X54210Y-42198D01*
X54053Y-42133D01*
X53821Y-42133D01*
X53607Y-42221D01*
X53442Y-42385D01*
X53354Y-42600D01*
X53353Y-42832D01*
X53442Y-43046D01*
X53606Y-43210D01*
X53820Y-43299D01*
X54052Y-43299D01*
X54266Y-43211D01*
X54429Y-43048D01*
X54590Y-43210D01*
X54804Y-43299D01*
X55036Y-43299D01*
X55251Y-43211D01*
X55415Y-43047D01*
X55504Y-42833D01*
X55504Y-42601D01*
X55504Y-48296D01*
X51370Y-48296D01*
X51370Y-42601D01*
X51281Y-42386D01*
X51118Y-42222D01*
X51060Y-42198D01*
X51060Y-40693D01*
X51019Y-40593D01*
X50942Y-40516D01*
X50841Y-40475D01*
X50733Y-40474D01*
X50632Y-40516D01*
X50556Y-40593D01*
X50514Y-40693D01*
X50514Y-40802D01*
X50555Y-40902D01*
X50632Y-40979D01*
X50732Y-41021D01*
X50841Y-41021D01*
X50941Y-40979D01*
X51018Y-40902D01*
X51060Y-40802D01*
X51060Y-40693D01*
X51060Y-42198D01*
X50903Y-42133D01*
X50671Y-42133D01*
X50457Y-42221D01*
X50295Y-42384D01*
X50133Y-42222D01*
X49919Y-42133D01*
X49687Y-42133D01*
X49473Y-42221D01*
X49402Y-42293D01*
X49402Y-40632D01*
X49313Y-40418D01*
X49149Y-40254D01*
X48935Y-40165D01*
X48703Y-40164D01*
X48489Y-40253D01*
X48324Y-40417D01*
X48235Y-40631D01*
X48235Y-40863D01*
X48324Y-41077D01*
X48488Y-41242D01*
X48702Y-41331D01*
X48934Y-41331D01*
X49148Y-41242D01*
X49312Y-41078D01*
X49401Y-40864D01*
X49402Y-40632D01*
X49402Y-42293D01*
X49309Y-42385D01*
X49220Y-42600D01*
X49219Y-42832D01*
X49308Y-43046D01*
X49472Y-43210D01*
X49686Y-43299D01*
X49918Y-43299D01*
X50133Y-43211D01*
X50295Y-43048D01*
X50456Y-43210D01*
X50670Y-43299D01*
X50902Y-43299D01*
X51117Y-43211D01*
X51281Y-43047D01*
X51370Y-42833D01*
X51370Y-42601D01*
X51370Y-48296D01*
X51112Y-48296D01*
X51112Y-44738D01*
X51063Y-44619D01*
X50971Y-44527D01*
X50852Y-44478D01*
X50723Y-44478D01*
X50603Y-44527D01*
X50512Y-44618D01*
X50462Y-44738D01*
X50462Y-44804D01*
X50180Y-45086D01*
X48417Y-45086D01*
X48417Y-42601D01*
X48329Y-42386D01*
X48165Y-42222D01*
X47951Y-42133D01*
X47719Y-42133D01*
X47504Y-42221D01*
X47342Y-42384D01*
X47181Y-42222D01*
X47123Y-42198D01*
X47123Y-40693D01*
X47081Y-40593D01*
X47005Y-40516D01*
X46904Y-40475D01*
X46796Y-40474D01*
X46695Y-40516D01*
X46619Y-40593D01*
X46577Y-40693D01*
X46577Y-40802D01*
X46618Y-40902D01*
X46695Y-40979D01*
X46795Y-41021D01*
X46904Y-41021D01*
X47004Y-40979D01*
X47081Y-40902D01*
X47123Y-40802D01*
X47123Y-40693D01*
X47123Y-42198D01*
X46966Y-42133D01*
X46734Y-42133D01*
X46520Y-42221D01*
X46356Y-42385D01*
X46267Y-42600D01*
X46267Y-42832D01*
X46355Y-43046D01*
X46519Y-43210D01*
X46733Y-43299D01*
X46965Y-43299D01*
X47180Y-43211D01*
X47342Y-43048D01*
X47503Y-43210D01*
X47718Y-43299D01*
X47950Y-43299D01*
X48164Y-43211D01*
X48328Y-43047D01*
X48417Y-42833D01*
X48417Y-42601D01*
X48417Y-45086D01*
X48301Y-45086D01*
X48255Y-45039D01*
X48135Y-44990D01*
X48006Y-44989D01*
X47887Y-45039D01*
X47795Y-45130D01*
X47745Y-45250D01*
X47745Y-45379D01*
X47795Y-45498D01*
X47886Y-45590D01*
X48005Y-45639D01*
X48135Y-45640D01*
X48254Y-45590D01*
X48301Y-45543D01*
X50275Y-45543D01*
X50363Y-45526D01*
X50437Y-45476D01*
X50785Y-45128D01*
X50851Y-45128D01*
X50971Y-45078D01*
X51062Y-44987D01*
X51112Y-44868D01*
X51112Y-44738D01*
X51112Y-48296D01*
X45954Y-48296D01*
X45954Y-45211D01*
X45905Y-45091D01*
X45858Y-45044D01*
X45858Y-42601D01*
X45770Y-42386D01*
X45606Y-42222D01*
X45548Y-42198D01*
X45548Y-40693D01*
X45507Y-40593D01*
X45430Y-40516D01*
X45330Y-40475D01*
X45221Y-40474D01*
X45121Y-40516D01*
X45044Y-40593D01*
X45002Y-40693D01*
X45002Y-40802D01*
X45043Y-40902D01*
X45120Y-40979D01*
X45221Y-41021D01*
X45329Y-41021D01*
X45430Y-40979D01*
X45506Y-40902D01*
X45548Y-40802D01*
X45548Y-40693D01*
X45548Y-42198D01*
X45392Y-42133D01*
X45160Y-42133D01*
X44945Y-42221D01*
X44783Y-42384D01*
X44622Y-42222D01*
X44407Y-42133D01*
X44175Y-42133D01*
X43961Y-42221D01*
X43890Y-42293D01*
X43890Y-40632D01*
X43801Y-40418D01*
X43637Y-40254D01*
X43423Y-40165D01*
X43191Y-40164D01*
X42977Y-40253D01*
X42813Y-40417D01*
X42724Y-40631D01*
X42723Y-40863D01*
X42812Y-41077D01*
X42976Y-41242D01*
X43190Y-41331D01*
X43422Y-41331D01*
X43636Y-41242D01*
X43801Y-41078D01*
X43890Y-40864D01*
X43890Y-40632D01*
X43890Y-42293D01*
X43797Y-42385D01*
X43708Y-42600D01*
X43708Y-42832D01*
X43796Y-43046D01*
X43960Y-43210D01*
X44174Y-43299D01*
X44406Y-43299D01*
X44621Y-43211D01*
X44783Y-43048D01*
X44944Y-43210D01*
X45159Y-43299D01*
X45391Y-43299D01*
X45605Y-43211D01*
X45769Y-43047D01*
X45858Y-42833D01*
X45858Y-42601D01*
X45858Y-45044D01*
X45814Y-45000D01*
X45694Y-44950D01*
X45565Y-44950D01*
X45446Y-44999D01*
X45354Y-45091D01*
X45304Y-45210D01*
X45304Y-45277D01*
X44905Y-45676D01*
X44561Y-45676D01*
X44515Y-45630D01*
X44395Y-45580D01*
X44266Y-45580D01*
X44146Y-45629D01*
X44055Y-45721D01*
X44005Y-45840D01*
X44005Y-45969D01*
X44055Y-46089D01*
X44146Y-46180D01*
X44265Y-46230D01*
X44395Y-46230D01*
X44514Y-46181D01*
X44561Y-46134D01*
X45000Y-46134D01*
X45087Y-46116D01*
X45161Y-46067D01*
X45628Y-45600D01*
X45694Y-45600D01*
X45813Y-45551D01*
X45905Y-45459D01*
X45954Y-45340D01*
X45954Y-45211D01*
X45954Y-48296D01*
X42906Y-48296D01*
X42906Y-42601D01*
X42817Y-42386D01*
X42653Y-42222D01*
X42439Y-42133D01*
X42207Y-42133D01*
X41992Y-42221D01*
X41830Y-42384D01*
X41669Y-42222D01*
X41611Y-42198D01*
X41611Y-40693D01*
X41570Y-40593D01*
X41493Y-40516D01*
X41393Y-40475D01*
X41284Y-40474D01*
X41184Y-40516D01*
X41107Y-40593D01*
X41065Y-40693D01*
X41065Y-40802D01*
X41106Y-40902D01*
X41183Y-40979D01*
X41284Y-41021D01*
X41392Y-41021D01*
X41493Y-40979D01*
X41569Y-40902D01*
X41611Y-40802D01*
X41611Y-40693D01*
X41611Y-42198D01*
X41455Y-42133D01*
X41223Y-42133D01*
X41008Y-42221D01*
X40844Y-42385D01*
X40755Y-42600D01*
X40755Y-42832D01*
X40843Y-43046D01*
X41007Y-43210D01*
X41222Y-43299D01*
X41454Y-43299D01*
X41668Y-43211D01*
X41830Y-43048D01*
X41992Y-43210D01*
X42206Y-43299D01*
X42438Y-43299D01*
X42652Y-43211D01*
X42816Y-43047D01*
X42905Y-42833D01*
X42906Y-42601D01*
X42906Y-48296D01*
X39813Y-48296D01*
X39813Y-39813D01*
X41065Y-39813D01*
X41065Y-39817D01*
X41106Y-39918D01*
X41183Y-39995D01*
X41284Y-40036D01*
X41392Y-40036D01*
X41493Y-39995D01*
X41569Y-39918D01*
X41611Y-39818D01*
X41611Y-39813D01*
X45002Y-39813D01*
X45002Y-39817D01*
X45043Y-39918D01*
X45120Y-39995D01*
X45221Y-40036D01*
X45329Y-40036D01*
X45430Y-39995D01*
X45506Y-39918D01*
X45548Y-39818D01*
X45548Y-39813D01*
X46577Y-39813D01*
X46577Y-39817D01*
X46618Y-39918D01*
X46695Y-39995D01*
X46795Y-40036D01*
X46904Y-40036D01*
X47004Y-39995D01*
X47081Y-39918D01*
X47123Y-39818D01*
X47123Y-39813D01*
X50514Y-39813D01*
X50514Y-39817D01*
X50555Y-39918D01*
X50632Y-39995D01*
X50732Y-40036D01*
X50841Y-40036D01*
X50941Y-39995D01*
X51018Y-39918D01*
X51060Y-39818D01*
X51060Y-39813D01*
X53663Y-39813D01*
X53663Y-39817D01*
X53705Y-39918D01*
X53782Y-39995D01*
X53882Y-40036D01*
X53991Y-40036D01*
X54091Y-39995D01*
X54168Y-39918D01*
X54209Y-39818D01*
X54209Y-39813D01*
X57600Y-39813D01*
X57600Y-39817D01*
X57642Y-39918D01*
X57719Y-39995D01*
X57819Y-40036D01*
X57928Y-40036D01*
X58028Y-39995D01*
X58105Y-39918D01*
X58146Y-39818D01*
X58147Y-39813D01*
X60973Y-39813D01*
X60973Y-52705D01*
M02*
