%FSLAX34Y34*%
G04 Gerber Fmt 3.4, Leading zero omitted, Abs format*
G04 (created by PCBNEW (2014-05-22 BZR 4881)-product) date Fri 30 May 2014 10:08:30 PM EDT*
%MOIN*%
G01*
G70*
G90*
G04 APERTURE LIST*
%ADD10C,0.003937*%
%ADD11C,0.007874*%
%ADD12C,0.011811*%
%ADD13C,0.005906*%
G04 APERTURE END LIST*
G54D10*
G54D11*
X53363Y-41934D02*
X52890Y-41934D01*
X53363Y-41439D02*
X53138Y-41597D01*
X53363Y-41709D02*
X52890Y-41709D01*
X52890Y-41529D01*
X52913Y-41484D01*
X52935Y-41462D01*
X52980Y-41439D01*
X53048Y-41439D01*
X53093Y-41462D01*
X53115Y-41484D01*
X53138Y-41529D01*
X53138Y-41709D01*
X53363Y-41237D02*
X52890Y-41237D01*
X53363Y-41012D02*
X52890Y-41012D01*
X53363Y-40742D01*
X52890Y-40742D01*
X51788Y-42474D02*
X51316Y-42474D01*
X51788Y-41979D02*
X51563Y-42137D01*
X51788Y-42249D02*
X51316Y-42249D01*
X51316Y-42069D01*
X51338Y-42024D01*
X51361Y-42002D01*
X51406Y-41979D01*
X51473Y-41979D01*
X51518Y-42002D01*
X51541Y-42024D01*
X51563Y-42069D01*
X51563Y-42249D01*
X51316Y-41687D02*
X51316Y-41597D01*
X51338Y-41552D01*
X51383Y-41507D01*
X51473Y-41484D01*
X51631Y-41484D01*
X51721Y-41507D01*
X51766Y-41552D01*
X51788Y-41597D01*
X51788Y-41687D01*
X51766Y-41732D01*
X51721Y-41777D01*
X51631Y-41799D01*
X51473Y-41799D01*
X51383Y-41777D01*
X51338Y-41732D01*
X51316Y-41687D01*
X51316Y-41282D02*
X51698Y-41282D01*
X51743Y-41259D01*
X51766Y-41237D01*
X51788Y-41192D01*
X51788Y-41102D01*
X51766Y-41057D01*
X51743Y-41034D01*
X51698Y-41012D01*
X51316Y-41012D01*
X51316Y-40854D02*
X51316Y-40584D01*
X51788Y-40719D02*
X51316Y-40719D01*
X51788Y-40179D02*
X51788Y-40449D01*
X51788Y-40314D02*
X51316Y-40314D01*
X51383Y-40359D01*
X51428Y-40404D01*
X51451Y-40449D01*
X40764Y-42474D02*
X40292Y-42474D01*
X40764Y-41979D02*
X40539Y-42137D01*
X40764Y-42249D02*
X40292Y-42249D01*
X40292Y-42069D01*
X40314Y-42024D01*
X40337Y-42002D01*
X40382Y-41979D01*
X40449Y-41979D01*
X40494Y-42002D01*
X40517Y-42024D01*
X40539Y-42069D01*
X40539Y-42249D01*
X40292Y-41687D02*
X40292Y-41597D01*
X40314Y-41552D01*
X40359Y-41507D01*
X40449Y-41484D01*
X40607Y-41484D01*
X40697Y-41507D01*
X40742Y-41552D01*
X40764Y-41597D01*
X40764Y-41687D01*
X40742Y-41732D01*
X40697Y-41777D01*
X40607Y-41799D01*
X40449Y-41799D01*
X40359Y-41777D01*
X40314Y-41732D01*
X40292Y-41687D01*
X40292Y-41282D02*
X40674Y-41282D01*
X40719Y-41259D01*
X40742Y-41237D01*
X40764Y-41192D01*
X40764Y-41102D01*
X40742Y-41057D01*
X40719Y-41034D01*
X40674Y-41012D01*
X40292Y-41012D01*
X40292Y-40854D02*
X40292Y-40584D01*
X40764Y-40719D02*
X40292Y-40719D01*
X40292Y-40337D02*
X40292Y-40292D01*
X40314Y-40247D01*
X40337Y-40224D01*
X40382Y-40202D01*
X40472Y-40179D01*
X40584Y-40179D01*
X40674Y-40202D01*
X40719Y-40224D01*
X40742Y-40247D01*
X40764Y-40292D01*
X40764Y-40337D01*
X40742Y-40382D01*
X40719Y-40404D01*
X40674Y-40427D01*
X40584Y-40449D01*
X40472Y-40449D01*
X40382Y-40427D01*
X40337Y-40404D01*
X40314Y-40382D01*
X40292Y-40337D01*
X40663Y-47851D02*
X40663Y-47379D01*
X40866Y-47851D02*
X40866Y-47604D01*
X40843Y-47559D01*
X40798Y-47536D01*
X40731Y-47536D01*
X40686Y-47559D01*
X40663Y-47581D01*
X41023Y-47536D02*
X41203Y-47536D01*
X41091Y-47379D02*
X41091Y-47784D01*
X41113Y-47829D01*
X41158Y-47851D01*
X41203Y-47851D01*
X41293Y-47536D02*
X41473Y-47536D01*
X41361Y-47379D02*
X41361Y-47784D01*
X41383Y-47829D01*
X41428Y-47851D01*
X41473Y-47851D01*
X41631Y-47536D02*
X41631Y-48008D01*
X41631Y-47559D02*
X41676Y-47536D01*
X41766Y-47536D01*
X41811Y-47559D01*
X41833Y-47581D01*
X41856Y-47626D01*
X41856Y-47761D01*
X41833Y-47806D01*
X41811Y-47829D01*
X41766Y-47851D01*
X41676Y-47851D01*
X41631Y-47829D01*
X42035Y-47829D02*
X42080Y-47851D01*
X42170Y-47851D01*
X42215Y-47829D01*
X42238Y-47784D01*
X42238Y-47761D01*
X42215Y-47716D01*
X42170Y-47694D01*
X42103Y-47694D01*
X42058Y-47671D01*
X42035Y-47626D01*
X42035Y-47604D01*
X42058Y-47559D01*
X42103Y-47536D01*
X42170Y-47536D01*
X42215Y-47559D01*
X42440Y-47806D02*
X42463Y-47829D01*
X42440Y-47851D01*
X42418Y-47829D01*
X42440Y-47806D01*
X42440Y-47851D01*
X42440Y-47559D02*
X42463Y-47581D01*
X42440Y-47604D01*
X42418Y-47581D01*
X42440Y-47559D01*
X42440Y-47604D01*
X43003Y-47356D02*
X42598Y-47964D01*
X43498Y-47356D02*
X43093Y-47964D01*
X43858Y-47536D02*
X43858Y-47919D01*
X43835Y-47964D01*
X43813Y-47986D01*
X43768Y-48008D01*
X43700Y-48008D01*
X43655Y-47986D01*
X43858Y-47829D02*
X43813Y-47851D01*
X43723Y-47851D01*
X43678Y-47829D01*
X43655Y-47806D01*
X43633Y-47761D01*
X43633Y-47626D01*
X43655Y-47581D01*
X43678Y-47559D01*
X43723Y-47536D01*
X43813Y-47536D01*
X43858Y-47559D01*
X44083Y-47851D02*
X44083Y-47536D01*
X44083Y-47379D02*
X44060Y-47401D01*
X44083Y-47424D01*
X44105Y-47401D01*
X44083Y-47379D01*
X44083Y-47424D01*
X44240Y-47536D02*
X44420Y-47536D01*
X44308Y-47379D02*
X44308Y-47784D01*
X44330Y-47829D01*
X44375Y-47851D01*
X44420Y-47851D01*
X44578Y-47851D02*
X44578Y-47379D01*
X44780Y-47851D02*
X44780Y-47604D01*
X44758Y-47559D01*
X44713Y-47536D01*
X44645Y-47536D01*
X44600Y-47559D01*
X44578Y-47581D01*
X45208Y-47536D02*
X45208Y-47851D01*
X45005Y-47536D02*
X45005Y-47784D01*
X45028Y-47829D01*
X45073Y-47851D01*
X45140Y-47851D01*
X45185Y-47829D01*
X45208Y-47806D01*
X45433Y-47851D02*
X45433Y-47379D01*
X45433Y-47559D02*
X45478Y-47536D01*
X45568Y-47536D01*
X45613Y-47559D01*
X45635Y-47581D01*
X45658Y-47626D01*
X45658Y-47761D01*
X45635Y-47806D01*
X45613Y-47829D01*
X45568Y-47851D01*
X45478Y-47851D01*
X45433Y-47829D01*
X45860Y-47806D02*
X45883Y-47829D01*
X45860Y-47851D01*
X45838Y-47829D01*
X45860Y-47806D01*
X45860Y-47851D01*
X46287Y-47829D02*
X46242Y-47851D01*
X46152Y-47851D01*
X46107Y-47829D01*
X46085Y-47806D01*
X46062Y-47761D01*
X46062Y-47626D01*
X46085Y-47581D01*
X46107Y-47559D01*
X46152Y-47536D01*
X46242Y-47536D01*
X46287Y-47559D01*
X46557Y-47851D02*
X46512Y-47829D01*
X46490Y-47806D01*
X46467Y-47761D01*
X46467Y-47626D01*
X46490Y-47581D01*
X46512Y-47559D01*
X46557Y-47536D01*
X46625Y-47536D01*
X46670Y-47559D01*
X46692Y-47581D01*
X46715Y-47626D01*
X46715Y-47761D01*
X46692Y-47806D01*
X46670Y-47829D01*
X46625Y-47851D01*
X46557Y-47851D01*
X46917Y-47851D02*
X46917Y-47536D01*
X46917Y-47581D02*
X46940Y-47559D01*
X46985Y-47536D01*
X47052Y-47536D01*
X47097Y-47559D01*
X47120Y-47604D01*
X47120Y-47851D01*
X47120Y-47604D02*
X47142Y-47559D01*
X47187Y-47536D01*
X47255Y-47536D01*
X47300Y-47559D01*
X47322Y-47604D01*
X47322Y-47851D01*
X47885Y-47356D02*
X47480Y-47964D01*
X48042Y-47536D02*
X48042Y-47941D01*
X48020Y-47986D01*
X47975Y-48008D01*
X47952Y-48008D01*
X48042Y-47379D02*
X48020Y-47401D01*
X48042Y-47424D01*
X48065Y-47401D01*
X48042Y-47379D01*
X48042Y-47424D01*
X48335Y-47851D02*
X48290Y-47829D01*
X48267Y-47806D01*
X48245Y-47761D01*
X48245Y-47626D01*
X48267Y-47581D01*
X48290Y-47559D01*
X48335Y-47536D01*
X48402Y-47536D01*
X48447Y-47559D01*
X48470Y-47581D01*
X48492Y-47626D01*
X48492Y-47761D01*
X48470Y-47806D01*
X48447Y-47829D01*
X48402Y-47851D01*
X48335Y-47851D01*
X48875Y-47829D02*
X48830Y-47851D01*
X48740Y-47851D01*
X48695Y-47829D01*
X48672Y-47784D01*
X48672Y-47604D01*
X48695Y-47559D01*
X48740Y-47536D01*
X48830Y-47536D01*
X48875Y-47559D01*
X48897Y-47604D01*
X48897Y-47649D01*
X48672Y-47694D01*
X49032Y-47536D02*
X49212Y-47536D01*
X49100Y-47851D02*
X49100Y-47446D01*
X49122Y-47401D01*
X49167Y-47379D01*
X49212Y-47379D01*
X49550Y-47829D02*
X49505Y-47851D01*
X49415Y-47851D01*
X49370Y-47829D01*
X49347Y-47784D01*
X49347Y-47604D01*
X49370Y-47559D01*
X49415Y-47536D01*
X49505Y-47536D01*
X49550Y-47559D01*
X49572Y-47604D01*
X49572Y-47649D01*
X49347Y-47694D01*
X49775Y-47851D02*
X49775Y-47536D01*
X49775Y-47626D02*
X49797Y-47581D01*
X49820Y-47559D01*
X49865Y-47536D01*
X49910Y-47536D01*
X50067Y-47536D02*
X50067Y-47851D01*
X50067Y-47581D02*
X50089Y-47559D01*
X50134Y-47536D01*
X50202Y-47536D01*
X50247Y-47559D01*
X50269Y-47604D01*
X50269Y-47851D01*
X50674Y-47829D02*
X50629Y-47851D01*
X50539Y-47851D01*
X50494Y-47829D01*
X50472Y-47784D01*
X50472Y-47604D01*
X50494Y-47559D01*
X50539Y-47536D01*
X50629Y-47536D01*
X50674Y-47559D01*
X50697Y-47604D01*
X50697Y-47649D01*
X50472Y-47694D01*
X50899Y-47851D02*
X50899Y-47536D01*
X50899Y-47626D02*
X50922Y-47581D01*
X50944Y-47559D01*
X50989Y-47536D01*
X51034Y-47536D01*
X51529Y-47356D02*
X51124Y-47964D01*
X51687Y-47536D02*
X51687Y-48008D01*
X51687Y-47559D02*
X51732Y-47536D01*
X51822Y-47536D01*
X51867Y-47559D01*
X51889Y-47581D01*
X51912Y-47626D01*
X51912Y-47761D01*
X51889Y-47806D01*
X51867Y-47829D01*
X51822Y-47851D01*
X51732Y-47851D01*
X51687Y-47829D01*
X52114Y-47851D02*
X52114Y-47536D01*
X52114Y-47379D02*
X52092Y-47401D01*
X52114Y-47424D01*
X52137Y-47401D01*
X52114Y-47379D01*
X52114Y-47424D01*
X52339Y-47671D02*
X52699Y-47671D01*
X52924Y-47851D02*
X52924Y-47536D01*
X52924Y-47379D02*
X52902Y-47401D01*
X52924Y-47424D01*
X52947Y-47401D01*
X52924Y-47379D01*
X52924Y-47424D01*
X53149Y-47851D02*
X53149Y-47536D01*
X53149Y-47626D02*
X53172Y-47581D01*
X53194Y-47559D01*
X53239Y-47536D01*
X53284Y-47536D01*
G54D12*
X40691Y-47117D02*
X40691Y-46526D01*
X40916Y-46526D01*
X40973Y-46555D01*
X41001Y-46583D01*
X41029Y-46639D01*
X41029Y-46723D01*
X41001Y-46780D01*
X40973Y-46808D01*
X40916Y-46836D01*
X40691Y-46836D01*
X41282Y-47117D02*
X41282Y-46526D01*
X41563Y-46892D02*
X42013Y-46892D01*
X42294Y-47117D02*
X42294Y-46526D01*
X42913Y-47117D02*
X42716Y-46836D01*
X42575Y-47117D02*
X42575Y-46526D01*
X42800Y-46526D01*
X42857Y-46555D01*
X42885Y-46583D01*
X42913Y-46639D01*
X42913Y-46723D01*
X42885Y-46780D01*
X42857Y-46808D01*
X42800Y-46836D01*
X42575Y-46836D01*
X43560Y-46723D02*
X43700Y-47117D01*
X43841Y-46723D01*
X44375Y-47117D02*
X44038Y-47117D01*
X44206Y-47117D02*
X44206Y-46526D01*
X44150Y-46611D01*
X44094Y-46667D01*
X44038Y-46695D01*
G54D10*
X58267Y-48818D02*
X39370Y-48818D01*
X58267Y-53149D02*
X58267Y-48818D01*
X61417Y-53149D02*
X58267Y-53149D01*
X61417Y-39370D02*
X61417Y-53149D01*
X39370Y-39370D02*
X39370Y-48818D01*
X39370Y-39370D02*
X61417Y-39370D01*
X60767Y-39822D02*
X60767Y-52830D01*
X60767Y-52830D02*
X58799Y-52830D01*
X58799Y-52830D02*
X58799Y-39822D01*
X58799Y-39822D02*
X60767Y-39822D01*
X55000Y-46338D02*
X55629Y-46968D01*
X55629Y-46968D02*
X56968Y-46968D01*
X56968Y-46968D02*
X57598Y-46338D01*
X57598Y-46338D02*
X57598Y-44370D01*
X57598Y-44370D02*
X55000Y-44370D01*
X55000Y-44370D02*
X55000Y-46338D01*
X57480Y-45669D02*
G75*
G03X57480Y-45669I-1181J0D01*
G74*
G01*
G54D13*
X51181Y-39448D02*
X51181Y-43307D01*
X51181Y-43307D02*
X46456Y-43307D01*
X46456Y-43307D02*
X46456Y-39448D01*
X58267Y-39448D02*
X58267Y-43307D01*
X58267Y-43307D02*
X53543Y-43307D01*
X53543Y-43307D02*
X53543Y-39448D01*
X45669Y-39448D02*
X45669Y-43307D01*
X45669Y-43307D02*
X40944Y-43307D01*
X40944Y-43307D02*
X40944Y-39448D01*
G54D10*
X49468Y-45452D02*
X48956Y-45452D01*
X48956Y-45452D02*
X48956Y-44311D01*
X49468Y-44311D02*
X48956Y-44311D01*
X49468Y-44311D02*
X49468Y-45452D01*
X43956Y-45452D02*
X43444Y-45452D01*
X43444Y-45452D02*
X43444Y-44311D01*
X43956Y-44311D02*
X43444Y-44311D01*
X43956Y-44311D02*
X43956Y-45452D01*
X46633Y-44881D02*
X47066Y-44881D01*
X53720Y-44881D02*
X54153Y-44881D01*
X41122Y-44881D02*
X41555Y-44881D01*
X58648Y-45989D02*
X58411Y-45989D01*
X58411Y-45899D01*
X58423Y-45876D01*
X58434Y-45865D01*
X58456Y-45854D01*
X58490Y-45854D01*
X58513Y-45865D01*
X58524Y-45876D01*
X58535Y-45899D01*
X58535Y-45989D01*
X58648Y-45629D02*
X58648Y-45764D01*
X58648Y-45696D02*
X58411Y-45696D01*
X58445Y-45719D01*
X58468Y-45741D01*
X58479Y-45764D01*
X58133Y-45708D02*
X58144Y-45719D01*
X58156Y-45753D01*
X58156Y-45776D01*
X58144Y-45809D01*
X58122Y-45832D01*
X58099Y-45843D01*
X58054Y-45854D01*
X58021Y-45854D01*
X57976Y-45843D01*
X57953Y-45832D01*
X57931Y-45809D01*
X57919Y-45776D01*
X57919Y-45753D01*
X57931Y-45719D01*
X57942Y-45708D01*
X58156Y-45483D02*
X58156Y-45618D01*
X58156Y-45551D02*
X57919Y-45551D01*
X57953Y-45573D01*
X57976Y-45596D01*
X57987Y-45618D01*
G54D13*
X50575Y-43878D02*
X50575Y-43485D01*
X50725Y-43485D01*
X50763Y-43503D01*
X50781Y-43522D01*
X50800Y-43560D01*
X50800Y-43616D01*
X50781Y-43653D01*
X50763Y-43672D01*
X50725Y-43691D01*
X50575Y-43691D01*
X51137Y-43616D02*
X51137Y-43878D01*
X51044Y-43466D02*
X50950Y-43747D01*
X51194Y-43747D01*
X57662Y-43957D02*
X57662Y-43563D01*
X57812Y-43563D01*
X57849Y-43582D01*
X57868Y-43601D01*
X57887Y-43638D01*
X57887Y-43695D01*
X57868Y-43732D01*
X57849Y-43751D01*
X57812Y-43770D01*
X57662Y-43770D01*
X58018Y-43563D02*
X58262Y-43563D01*
X58130Y-43713D01*
X58187Y-43713D01*
X58224Y-43732D01*
X58243Y-43751D01*
X58262Y-43788D01*
X58262Y-43882D01*
X58243Y-43920D01*
X58224Y-43938D01*
X58187Y-43957D01*
X58074Y-43957D01*
X58037Y-43938D01*
X58018Y-43920D01*
X44985Y-43878D02*
X44985Y-43485D01*
X45134Y-43485D01*
X45172Y-43503D01*
X45191Y-43522D01*
X45209Y-43560D01*
X45209Y-43616D01*
X45191Y-43653D01*
X45172Y-43672D01*
X45134Y-43691D01*
X44985Y-43691D01*
X45359Y-43522D02*
X45378Y-43503D01*
X45416Y-43485D01*
X45509Y-43485D01*
X45547Y-43503D01*
X45566Y-43522D01*
X45584Y-43560D01*
X45584Y-43597D01*
X45566Y-43653D01*
X45341Y-43878D01*
X45584Y-43878D01*
G54D10*
X49032Y-43802D02*
X49032Y-43993D01*
X49043Y-44016D01*
X49055Y-44027D01*
X49077Y-44038D01*
X49122Y-44038D01*
X49145Y-44027D01*
X49156Y-44016D01*
X49167Y-43993D01*
X49167Y-43802D01*
X49268Y-43825D02*
X49280Y-43813D01*
X49302Y-43802D01*
X49358Y-43802D01*
X49381Y-43813D01*
X49392Y-43825D01*
X49403Y-43847D01*
X49403Y-43870D01*
X49392Y-43903D01*
X49257Y-44038D01*
X49403Y-44038D01*
X43520Y-43802D02*
X43520Y-43993D01*
X43532Y-44016D01*
X43543Y-44027D01*
X43565Y-44038D01*
X43610Y-44038D01*
X43633Y-44027D01*
X43644Y-44016D01*
X43655Y-43993D01*
X43655Y-43802D01*
X43892Y-44038D02*
X43757Y-44038D01*
X43824Y-44038D02*
X43824Y-43802D01*
X43802Y-43836D01*
X43779Y-43858D01*
X43757Y-43870D01*
X46811Y-44138D02*
X46732Y-44026D01*
X46676Y-44138D02*
X46676Y-43902D01*
X46766Y-43902D01*
X46788Y-43913D01*
X46799Y-43925D01*
X46811Y-43947D01*
X46811Y-43981D01*
X46799Y-44003D01*
X46788Y-44015D01*
X46766Y-44026D01*
X46676Y-44026D01*
X46889Y-43902D02*
X47035Y-43902D01*
X46957Y-43992D01*
X46991Y-43992D01*
X47013Y-44003D01*
X47024Y-44015D01*
X47035Y-44037D01*
X47035Y-44093D01*
X47024Y-44116D01*
X47013Y-44127D01*
X46991Y-44138D01*
X46923Y-44138D01*
X46901Y-44127D01*
X46889Y-44116D01*
X53897Y-44138D02*
X53818Y-44026D01*
X53762Y-44138D02*
X53762Y-43902D01*
X53852Y-43902D01*
X53875Y-43913D01*
X53886Y-43925D01*
X53897Y-43947D01*
X53897Y-43981D01*
X53886Y-44003D01*
X53875Y-44015D01*
X53852Y-44026D01*
X53762Y-44026D01*
X53987Y-43925D02*
X53998Y-43913D01*
X54021Y-43902D01*
X54077Y-43902D01*
X54100Y-43913D01*
X54111Y-43925D01*
X54122Y-43947D01*
X54122Y-43970D01*
X54111Y-44003D01*
X53976Y-44138D01*
X54122Y-44138D01*
X41299Y-44138D02*
X41220Y-44026D01*
X41164Y-44138D02*
X41164Y-43902D01*
X41254Y-43902D01*
X41276Y-43913D01*
X41287Y-43925D01*
X41299Y-43947D01*
X41299Y-43981D01*
X41287Y-44003D01*
X41276Y-44015D01*
X41254Y-44026D01*
X41164Y-44026D01*
X41524Y-44138D02*
X41389Y-44138D01*
X41456Y-44138D02*
X41456Y-43902D01*
X41434Y-43936D01*
X41411Y-43958D01*
X41389Y-43970D01*
M02*
