%FSLAX34Y34*%
G04 Gerber Fmt 3.4, Leading zero omitted, Abs format*
G04 (created by PCBNEW (2014-05-22 BZR 4881)-product) date Fri 30 May 2014 10:08:30 PM EDT*
%MOIN*%
G01*
G70*
G90*
G04 APERTURE LIST*
%ADD10C,0.003937*%
%ADD11R,0.064961X0.064961*%
%ADD12C,0.064961*%
%ADD13R,0.064961X0.127953*%
%ADD14C,0.024606*%
%ADD15C,0.086614*%
%ADD16R,0.051181X0.023622*%
%ADD17R,0.057087X0.039370*%
G04 APERTURE END LIST*
G54D10*
X58267Y-48818D02*
X39370Y-48818D01*
X58267Y-53149D02*
X58267Y-48818D01*
X61417Y-53149D02*
X58267Y-53149D01*
X61417Y-39370D02*
X61417Y-53149D01*
X39370Y-39370D02*
X39370Y-48818D01*
X39370Y-39370D02*
X61417Y-39370D01*
G54D11*
X59291Y-40314D03*
G54D12*
X60291Y-40314D03*
X59291Y-41314D03*
X60291Y-41314D03*
X59291Y-42314D03*
X60291Y-42314D03*
X59291Y-43314D03*
X60291Y-43314D03*
X59291Y-44314D03*
X60291Y-44314D03*
X59291Y-45314D03*
X60291Y-45314D03*
X59291Y-46314D03*
X60291Y-46314D03*
X59291Y-47314D03*
X60291Y-47314D03*
X59291Y-48314D03*
X60291Y-48314D03*
X59291Y-49314D03*
X60291Y-49314D03*
X59291Y-50314D03*
X60291Y-50314D03*
X59291Y-51314D03*
X60291Y-51314D03*
X59291Y-52314D03*
X60291Y-52314D03*
G54D13*
X56299Y-46692D03*
X56299Y-44645D03*
G54D14*
X50787Y-39763D03*
X50787Y-40748D03*
X46850Y-39763D03*
X46850Y-40748D03*
G54D15*
X48818Y-40748D03*
X46850Y-42716D03*
X50787Y-42716D03*
X47834Y-42716D03*
X49803Y-42716D03*
G54D14*
X57874Y-39763D03*
X57874Y-40748D03*
X53937Y-39763D03*
X53937Y-40748D03*
G54D15*
X55905Y-40748D03*
X53937Y-42716D03*
X57874Y-42716D03*
X54921Y-42716D03*
X56889Y-42716D03*
G54D14*
X45275Y-39763D03*
X45275Y-40748D03*
X41338Y-39763D03*
X41338Y-40748D03*
G54D15*
X43307Y-40748D03*
X41338Y-42716D03*
X45275Y-42716D03*
X42322Y-42716D03*
X44291Y-42716D03*
G54D16*
X49625Y-45255D03*
X49625Y-44507D03*
X48799Y-44881D03*
X44114Y-45255D03*
X44114Y-44507D03*
X43287Y-44881D03*
G54D17*
X46850Y-45255D03*
X46850Y-44507D03*
X53937Y-45255D03*
X53937Y-44507D03*
X41338Y-45255D03*
X41338Y-44507D03*
M02*
